<?xml version="1.0" standalone="no"?>
<!DOCTYPE svg PUBLIC "-//W3C//DTD SVG 20010904//EN"
 "http://www.w3.org/TR/2001/REC-SVG-20010904/DTD/svg10.dtd">
<svg version="1.0" xmlns="http://www.w3.org/2000/svg"
 width="1188.000000pt" height="648.000000pt" viewBox="0 0 1188.000000 648.000000"
 preserveAspectRatio="xMidYMid meet">

<g transform="translate(0.000000,648.000000) scale(0.100000,-0.100000)"
fill="#000000" stroke="none">
<path d="M3710 3465 l0 -1595 3020 0 3020 0 0 1595 0 1595 -3020 0 -3020 0 0
-1595z m5988 -2 l2 -1543 -2970 0 -2970 0 0 1538 c0 846 3 1542 7 1545 3 4
1339 6 2967 5 l2961 -3 3 -1542z"/>
<path d="M5932 3883 c-6 -3 -9 -10 -5 -16 4 -6 0 -8 -9 -5 -8 4 -15 1 -15 -5
-1 -7 -34 -174 -74 -371 -52 -257 -69 -361 -61 -364 7 -2 9 -9 5 -15 -4 -6 0
-8 10 -4 10 3 17 2 17 -4 0 -6 5 -7 11 -3 6 3 68 6 137 5 88 -1 122 2 112 9
-11 7 -6 10 23 10 27 0 36 -4 32 -12 -4 -7 0 -5 9 6 8 10 19 15 25 11 6 -3 11
-2 11 3 0 13 50 33 62 26 7 -5 8 -2 4 5 -5 8 -3 11 7 9 9 -2 16 2 17 7 2 16
32 45 40 40 4 -3 14 3 21 12 12 14 12 16 0 9 -9 -6 -12 -5 -9 5 3 8 9 13 14
12 5 -1 10 8 11 20 1 12 5 45 9 74 5 38 2 59 -10 83 -8 18 -13 38 -9 44 3 6 3
8 -2 4 -4 -4 -26 2 -48 14 l-41 20 25 13 c13 7 27 11 32 8 4 -2 6 -1 5 4 -1 4
6 18 17 30 14 17 21 19 27 10 7 -9 8 -8 7 3 -3 28 1 41 10 36 5 -4 7 4 4 16
-4 18 -3 20 6 8 8 -11 9 -7 6 20 -14 115 -15 131 -3 124 7 -4 8 -3 4 5 -4 6
-11 9 -15 6 -12 -7 -43 30 -34 40 5 4 3 5 -4 1 -12 -7 -63 12 -63 25 0 4 -18
5 -40 2 -27 -4 -40 -2 -40 6 0 8 -30 11 -104 10 -57 -1 -108 1 -113 4 -4 2
-14 2 -21 0z m264 -157 c28 -38 12 -108 -34 -150 -12 -10 -26 -15 -33 -10 -8
4 -10 3 -5 -4 5 -8 0 -12 -13 -12 -12 0 -21 3 -21 8 0 4 -20 7 -45 7 -25 0
-45 -3 -45 -7 0 -5 -4 -8 -8 -8 -4 0 0 44 11 98 l19 97 80 0 c67 0 82 -3 94
-19z m-216 -301 c0 6 34 10 81 10 76 0 82 -2 105 -28 13 -15 24 -35 24 -43 0
-26 -29 -86 -39 -80 -10 6 -25 -11 -26 -29 0 -5 -11 -9 -23 -8 -13 2 -21 -1
-17 -7 8 -13 -11 -13 -54 0 -22 6 -40 6 -53 -1 -14 -7 -23 -7 -34 2 -11 9 -14
9 -14 -1 0 -8 -2 -11 -5 -8 -3 3 4 49 15 103 11 53 20 100 20 104 0 3 5 -1 10
-9 5 -8 10 -10 10 -5z m170 -155 c0 -5 -5 -10 -11 -10 -5 0 -7 5 -4 10 3 6 8
10 11 10 2 0 4 -4 4 -10z"/>
<path d="M6150 3736 c0 -2 7 -7 16 -10 8 -3 12 -2 9 4 -6 10 -25 14 -25 6z"/>
<path d="M6021 3684 c0 -11 3 -14 6 -6 3 7 2 16 -1 19 -3 4 -6 -2 -5 -13z"/>
<path d="M6015 3649 c-4 -6 -5 -12 -2 -15 2 -3 7 2 10 11 7 17 1 20 -8 4z"/>
<path d="M6171 3613 c-10 -26 -10 -27 4 -9 8 11 15 23 15 28 0 15 -7 8 -19
-19z"/>
<path d="M6140 3411 c0 -5 7 -12 16 -15 14 -5 15 -4 4 9 -14 17 -20 19 -20 6z"/>
<path d="M6153 3315 c0 -8 4 -12 9 -9 4 3 8 9 8 15 0 5 -4 9 -8 9 -5 0 -9 -7
-9 -15z"/>
<path d="M6509 3878 c-10 -4 -19 -10 -19 -13 0 -4 4 -3 10 0 6 3 7 -1 4 -9 -3
-9 -10 -14 -14 -11 -5 3 -12 0 -16 -6 -5 -8 -3 -9 6 -4 10 6 12 -1 7 -33 -11
-63 -4 -70 60 -67 31 1 71 -1 90 -5 18 -5 33 -4 33 1 0 5 4 9 8 9 5 0 4 -22
-2 -49 -5 -28 -13 -48 -17 -45 -4 2 -11 -1 -15 -7 -4 -8 -3 -9 4 -5 8 5 12 -2
12 -21 0 -22 -2 -25 -10 -13 -8 11 -9 9 -5 -10 3 -14 -14 -123 -39 -244 -42
-208 -43 -219 -25 -223 11 -3 19 -9 19 -14 0 -5 -8 -6 -17 -3 -13 4 -14 3 -5
-3 14 -11 70 -5 78 8 3 5 14 9 24 9 22 0 40 28 40 60 0 12 4 19 8 16 5 -3 6 9
4 26 -3 18 -1 28 5 25 5 -4 8 7 5 25 -4 23 -2 29 8 23 9 -5 11 -4 6 3 -9 15 3
104 13 97 4 -2 5 10 3 27 -3 18 -1 28 5 25 5 -3 8 7 5 26 -3 26 -1 29 8 17 9
-12 10 -11 5 7 -10 34 30 243 46 243 6 0 7 -5 3 -12 -5 -7 -3 -8 5 -4 7 5 50
8 96 8 l83 0 16 33 c9 18 16 51 16 74 l0 40 -266 3 c-146 2 -274 0 -285 -4z"/>
<path d="M7274 3875 c-4 -10 -14 -13 -29 -9 -13 3 -26 1 -29 -5 -5 -7 0 -9 11
-5 17 5 17 5 0 -6 -9 -6 -22 -8 -29 -4 -7 4 -8 3 -4 -4 3 -6 -3 -16 -14 -22
-11 -6 -20 -8 -20 -4 0 3 -7 1 -15 -6 -9 -7 -13 -15 -11 -18 8 -7 -14 -43 -22
-38 -4 2 -8 -6 -9 -17 -1 -12 -5 -45 -9 -73 -8 -67 8 -115 54 -161 21 -20 30
-32 22 -28 -13 8 -13 7 -1 -8 15 -19 26 -23 15 -6 -4 7 -1 10 7 7 8 -3 14 -11
14 -18 0 -7 7 -15 15 -17 13 -4 13 -3 0 6 -33 24 10 9 46 -15 52 -35 63 -52
64 -94 0 -42 -20 -75 -58 -94 -29 -15 -146 -20 -137 -6 3 5 0 12 -6 16 -8 4
-9 3 -5 -4 8 -13 -4 -15 -28 -6 -9 3 -13 10 -10 15 3 5 -3 6 -12 2 -12 -4 -15
-3 -10 5 5 8 1 10 -10 5 -10 -4 -15 -2 -11 4 3 5 -3 9 -15 8 -12 -1 -24 -7
-26 -13 -2 -7 -9 -9 -14 -6 -7 5 -8 2 -4 -5 11 -18 -3 -83 -16 -75 -6 4 -6 -1
1 -15 14 -25 23 -28 14 -3 -6 15 -5 15 10 3 9 -7 14 -17 11 -22 -3 -5 3 -6 12
-2 11 4 15 2 11 -4 -4 -6 -1 -11 6 -10 36 1 57 -4 52 -13 -4 -6 -11 -7 -17 -4
-7 4 -8 2 -4 -4 5 -9 13 -9 26 -2 22 12 60 13 60 2 0 -4 16 -7 35 -8 19 0 35
4 35 9 0 5 16 7 35 4 21 -3 33 -2 30 4 -4 5 1 9 10 9 10 0 14 -5 10 -12 -4 -7
0 -5 9 6 8 10 20 15 27 10 8 -5 10 -3 4 6 -6 10 -4 12 9 7 11 -5 15 -3 10 5
-5 8 -2 9 10 5 9 -4 15 -3 12 2 -8 13 21 34 35 25 7 -4 9 -3 6 2 -3 5 4 21 15
34 11 14 16 18 12 10 -4 -9 -3 -12 2 -7 5 5 9 14 9 20 1 7 7 32 14 57 8 27 10
62 6 90 -3 25 -7 56 -8 70 -1 14 -6 25 -12 25 -19 0 -35 16 -29 27 4 6 3 8 -3
5 -6 -4 -19 1 -29 9 -10 9 -13 12 -5 8 9 -5 12 -3 7 5 -4 6 -11 9 -15 7 -11
-7 -106 48 -106 61 0 6 -4 15 -9 20 -6 5 -6 2 -1 -7 8 -13 7 -13 -9 -1 -9 8
-15 20 -12 28 3 8 1 11 -4 8 -11 -7 -13 9 -4 42 4 13 10 20 15 17 5 -3 6 2 3
10 -4 9 5 20 25 30 39 21 60 21 35 0 -18 -15 -17 -15 6 -2 32 18 94 23 84 7
-5 -8 -3 -9 5 -5 7 5 19 0 27 -10 9 -11 13 -13 9 -6 -3 6 -3 12 2 12 15 -1 43
-27 44 -41 1 -20 20 28 34 87 11 46 11 51 -4 50 -9 0 -15 4 -14 11 2 7 -4 10
-12 7 -8 -4 -15 -1 -15 5 0 6 -7 8 -15 5 -9 -4 -15 0 -15 10 0 9 -8 16 -17 16
-15 0 -16 -2 -3 -10 12 -8 9 -10 -13 -10 -16 0 -26 3 -24 8 3 4 -15 7 -39 8
-24 0 -41 -3 -38 -8 3 -4 -7 -8 -21 -8 -15 0 -24 4 -20 10 3 6 4 10 0 10 -3 0
-8 -7 -11 -15z"/>
<path d="M7071 3824 c0 -11 3 -14 6 -6 3 7 2 16 -1 19 -3 4 -6 -2 -5 -13z"/>
<path d="M6655 3700 c-3 -5 -1 -10 4 -10 6 0 11 5 11 10 0 6 -2 10 -4 10 -3 0
-8 -4 -11 -10z"/>
<path d="M7255 3679 c-4 -6 -5 -12 -2 -15 2 -3 7 2 10 11 7 17 1 20 -8 4z"/>
<path d="M5841 3654 c0 -11 3 -14 6 -6 3 7 2 16 -1 19 -3 4 -6 -2 -5 -13z"/>
<path d="M7072 3635 c0 -16 2 -22 5 -12 2 9 2 23 0 30 -3 6 -5 -1 -5 -18z"/>
<path d="M7080 3571 c0 -6 4 -13 10 -16 6 -3 7 1 4 9 -7 18 -14 21 -14 7z"/>
<path d="M5816 3533 c-6 -14 -5 -15 5 -6 7 7 10 15 7 18 -3 3 -9 -2 -12 -12z"/>
<path d="M6618 3507 c-3 -19 -2 -25 4 -19 6 6 8 18 6 28 -3 14 -5 12 -10 -9z"/>
<path d="M5802 3450 c0 -14 2 -19 5 -12 2 6 2 18 0 25 -3 6 -5 1 -5 -13z"/>
<path d="M6601 3414 c0 -11 3 -14 6 -6 3 7 2 16 -1 19 -3 4 -6 -2 -5 -13z"/>
<path d="M7240 3426 c0 -2 8 -10 18 -17 15 -13 16 -12 3 4 -13 16 -21 21 -21
13z"/>
<path d="M6586 3387 c3 -10 9 -15 12 -12 3 3 0 11 -7 18 -10 9 -11 8 -5 -6z"/>
<path d="M7311 3354 c0 -11 3 -14 6 -6 3 7 2 16 -1 19 -3 4 -6 -2 -5 -13z"/>
<path d="M5761 3244 c0 -11 3 -14 6 -6 3 7 2 16 -1 19 -3 4 -6 -2 -5 -13z"/>
<path d="M5718 2973 c-6 -29 -1 -113 7 -113 5 0 413 0 905 0 492 0 900 0 905
0 6 0 10 24 10 58 l0 57 -912 3 c-502 1 -914 -1 -915 -5z"/>
</g>
</svg>
